{"asset":{"generator":"Khronos glTF Blender I/O v4.3.47","version":"2.0"},"scene":0,"scenes":[{"name":"Scene","nodes":[69]}],"nodes":[{"name":"Head","rotation":[-0.13207007944583893,0,0,0.991240382194519],"translation":[0,0.08285234868526459,9.3132257461547852E-09]},{"children":[0],"name":"neck_01","rotation":[0.25725916028022766,0,0,0.9663424491882324],"translation":[0,0.21509313583374023,1.862645149230957E-08]},{"name":"index_04_leaf_l","rotation":[-4.6566137612558123E-09,-1,-1.8664633572962157E-15,3.6517762964649592E-06],"scale":[1,0.9999997019767761,1],"translation":[1.9281287677586079E-10,0.02411014772951603,1.6830044557991641E-07]},{"children":[2],"name":"index_03_l","rotation":[-1.348770428677426E-09,3.6897152000392452E-12,-0.00018570991232991219,1],"translation":[-1.6689227777533233E-09,0.027911463752388954,1.6598225727193494E-07]},{"children":[3],"name":"index_02_l","rotation":[-1.7216239101003339E-08,-3.9419649766614384E-08,-0.0005329284467734396,0.9999998807907104],"translation":[-3.3742253435775638E-10,0.0326123908162117,1.3817563626616902E-07]},{"children":[4],"name":"index_01_l","rotation":[-0.009757923893630505,0.7070369124412537,-0.0097578726708889,0.7070420384407043],"scale":[1,1.0000001192092896,1],"translation":[0.009400011971592903,0.11500009149312973,0.03249999135732651]},{"name":"middle_04_leaf_l","rotation":[2.4214386940002441E-08,-1,-9.97962698806934E-14,3.65177675121231E-06],"translation":[5.1686583901755512E-09,0.030519818887114525,2.3142732175074343E-08]},{"children":[6],"name":"middle_03_l","rotation":[-1.0311108411542591E-08,2.6171759204274281E-11,-0.001419748761691153,0.9999989867210388],"scale":[0.9999999403953552,1,1],"translation":[3.3051037462428212E-09,0.03011666052043438,1.2451241104827204E-07]},{"children":[7],"name":"middle_02_l","rotation":[1.5643285777855453E-08,-3.9137486140816691E-08,0.0020527271553874016,0.9999979138374329],"scale":[0.9999999403953552,0.9999999403953552,0.9999999403953552],"translation":[1.090484147425741E-09,0.03752619028091431,1.5301162648029276E-07]},{"children":[8],"name":"middle_01_l","rotation":[-0.013192507438361645,0.7069811820983887,-0.013192412443459034,0.7069862484931946],"scale":[0.9999999403953552,0.9999998807907104,0.9999999403953552],"translation":[0.0069999718107283115,0.11260004341602325,0.0069999960251152515]},{"name":"pinky_04_leaf_l","rotation":[-2.2351745343485163E-08,-1,1.2562023090582214E-13,3.6517762964649592E-06],"scale":[0.9999999403953552,0.9999999403953552,1],"translation":[1.0336407285649329E-08,0.021523205563426018,-2.8141130314907059E-07]},{"children":[10],"name":"pinky_03_l","rotation":[3.3834088863926581E-09,-9.6274117150629834E-12,0.0004658793332055211,0.9999998807907104],"scale":[0.9999999403953552,0.9999999403953552,1],"translation":[2.8849171940237284E-09,0.02743077464401722,-3.7296700838851393E-08]},{"children":[11],"name":"pinky_02_l","rotation":[-1.035459185061427E-08,-3.8975510818772818E-08,-0.0015674028545618057,0.9999988079071045],"translation":[-1.0922121873591095E-08,0.031630996614694595,7.0672058427589945E-08]},{"children":[12],"name":"pinky_01_l","rotation":[-0.015652360394597054,0.706930935382843,-0.01565224677324295,0.7069361209869385],"translation":[0.009000067599117756,0.0951000526547432,-0.042500000447034836]},{"name":"ring_04_leaf_l","rotation":[1.1641533959050321E-08,-1,-4.1919619902033856E-14,3.6517762964649592E-06],"scale":[1,0.9999997019767761,1],"translation":[-3.8353391573764384E-09,0.029101530089974403,3.3917494590696151E-08]},{"children":[14],"name":"ring_03_l","rotation":[-2.4604773329883756E-08,6.2351852847530864E-11,-0.003387601813301444,0.9999942779541016],"scale":[1,0.9999999403953552,1],"translation":[-8.0262907431460917E-09,0.028300149366259575,1.1107826480838412E-07]},{"children":[15],"name":"ring_02_l","rotation":[1.7517091777108362E-08,-3.9449915334444086E-08,0.0023997032549232244,0.9999971389770508],"translation":[-5.1859387895092368E-09,0.0360012948513031,1.4641962309269729E-07]},{"children":[16],"name":"ring_01_l","rotation":[-0.0029462252277880907,0.7070980072021484,-0.0029462038073688745,0.7071032524108887],"scale":[0.9999998807907104,0.9999997019767761,0.9999998807907104],"translation":[0.00730002298951149,0.10620005428791046,-0.020400000736117363]},{"name":"thumb_04_leaf_l","rotation":[2.2672955068969713E-08,0.4282083213329315,-1.3036950008427084E-07,0.9036800265312195],"scale":[0.9999998807907104,1,1],"translation":[-1.0710209608078003E-07,0.03459959849715233,6.51925802230835E-09]},{"children":[18],"name":"thumb_03_l","rotation":[-0.0003726967261172831,2.6525931389187463E-05,0.00011462579277576879,0.9999999403953552],"scale":[1.0000001192092896,1,1],"translation":[3.5608536563813686E-08,0.03922773152589798,-5.1688402891159058E-08]},{"children":[19],"name":"thumb_02_l","rotation":[0.0008555729873478413,3.4565124224172905E-05,-0.0004891895223408937,0.9999995231628418],"scale":[1,0.9999999403953552,1],"translation":[-1.83063093572855E-07,0.039565373212099075,5.5879354476928711E-09]},{"children":[20],"name":"thumb_01_l","rotation":[0.30099350214004517,0.9291350841522217,0.21020177006721497,0.04388770833611488],"scale":[1,1.0000001192092896,1],"translation":[0.021399976685643196,0.027700087055563927,0.02740001305937767]},{"children":[5,9,13,17,21],"name":"hand_l","rotation":[-0.015807554125785828,-1.1323515991534805E-06,-1.8592922756965891E-08,0.9998750686645508],"scale":[1,1,0.9999999403953552],"translation":[8.1564749621065857E-08,0.24042010307312012,-3.2514435588382185E-09]},{"children":[22],"name":"lowerarm_l","rotation":[0.03093818761408329,4.2500738345552236E-05,-1.2440405043889768E-06,0.9995213150978088],"translation":[-4.0259010347654112E-08,0.25111493468284607,-8.7311491370201111E-11]},{"children":[23],"name":"upperarm_l","rotation":[0.16515187919139862,0.6876330971717834,-0.16469810903072357,0.6875755786895752],"scale":[0.9999999403953552,1,1],"translation":[-0.009641071781516075,0.1883048117160797,-0.03967198729515076]},{"children":[24],"name":"clavicle_l","rotation":[-0.5359424352645874,-0.3172530233860016,-0.3989512026309967,0.673018753528595],"translation":[0.03139999881386757,0.1737176477909088,0.06732845306396484]},{"name":"index_04_leaf_r","rotation":[-4.6566137612558123E-09,1,-9.0691843073506355E-15,3.6517762964649592E-06],"scale":[1,0.9999997019767761,1],"translation":[-1.9281287677586079E-10,0.02411014772951603,1.6830023241709569E-07]},{"children":[26],"name":"index_03_r","rotation":[-1.3487808647738575E-09,-3.9689362907324721E-12,0.00018570991232991219,1],"translation":[1.6707417671568692E-09,0.027911463752388954,1.659820298982595E-07]},{"children":[27],"name":"index_02_r","rotation":[-4.891389959738035E-09,3.925104508084587E-08,0.0005329284467734396,0.9999998807907104],"translation":[-1.2369127944111824E-10,0.032612428069114685,1.5866616820403578E-07]},{"children":[28],"name":"index_01_r","rotation":[-0.00975793320685625,-0.7070369720458984,0.009757863357663155,0.7070419788360596],"scale":[1,1.0000001192092896,1],"translation":[-0.00940000731498003,0.11500009149312973,0.032499995082616806]},{"name":"middle_04_leaf_r","rotation":[2.4214386940002441E-08,1,8.4197026520987928E-14,3.65177675121231E-06],"translation":[-5.1686583901755512E-09,0.030519818887114525,2.3141225824474532E-08]},{"children":[30],"name":"middle_03_r","rotation":[-1.0311155484998835E-08,-2.69988770923435E-11,0.001419748761691153,0.9999989867210388],"scale":[0.9999999403953552,1,1],"translation":[-3.3060132409445941E-09,0.03011666052043438,1.2451081943254394E-07]},{"children":[31],"name":"middle_02_r","rotation":[1.3419549915738571E-08,3.920036917293146E-08,-0.0020527271553874016,0.9999979138374329],"scale":[0.9999999403953552,0.9999999403953552,0.9999999403953552],"translation":[-1.2823875294998288E-09,0.03752618655562401,1.4930063230167434E-07]},{"children":[32],"name":"middle_01_r","rotation":[-0.013192505575716496,-0.7069811820983887,0.013192412443459034,0.7069862484931946],"scale":[0.9999999403953552,0.9999998807907104,0.9999999403953552],"translation":[-0.006999965291470289,0.11260004341602325,0.0069999974220991135]},{"name":"pinky_04_leaf_r","rotation":[-2.2351745343485163E-08,1,-9.3812226053830577E-14,3.6517762964649592E-06],"scale":[0.9999999403953552,0.9999999403953552,1],"translation":[-1.0335497790947556E-08,0.02152320370078087,-2.8141195684838749E-07]},{"children":[34],"name":"pinky_03_r","rotation":[3.3834006707422759E-09,9.1104910074357726E-12,-0.0004658793332055211,0.9999998807907104],"scale":[0.9999999403953552,0.9999999403953552,1],"translation":[-2.8858266887255013E-09,0.02743077091872692,-3.7297411381587153E-08]},{"children":[35],"name":"pinky_02_r","rotation":[1.908002644768203E-09,3.8693851678317515E-08,0.0015674028545618057,0.9999988079071045],"translation":[4.2391548049636185E-09,0.03163096681237221,9.0595648316593724E-08]},{"children":[36],"name":"pinky_01_r","rotation":[-0.0156523697078228,-0.7069309949874878,0.015652237460017204,0.7069360613822937],"translation":[-0.009000054560601711,0.0951000526547432,-0.042500000447034836]},{"name":"ring_04_leaf_r","rotation":[1.1641533959050321E-08,1,3.9324348221096359E-14,3.6517762964649592E-06],"scale":[1,0.9999997019767761,1],"translation":[3.8353391573764384E-09,0.029101528227329254,3.3915867447831261E-08]},{"children":[38],"name":"ring_03_r","rotation":[-2.4604839055086813E-08,-5.9595307855264679E-11,0.003387601813301444,0.9999942779541016],"scale":[1,0.9999999403953552,1],"translation":[8.0262907431460917E-09,0.028300149366259575,1.1107695030432296E-07]},{"children":[39],"name":"ring_02_r","rotation":[1.7020420628455213E-08,3.94586443519529E-08,-0.0023997037205845118,0.9999971389770508],"translation":[6.0817910707555711E-09,0.0360012948513031,1.4559928729340754E-07]},{"children":[40],"name":"ring_01_r","rotation":[-0.002946224994957447,-0.7070980668067932,0.002946204040199518,0.7071031928062439],"scale":[0.9999998807907104,0.9999997019767761,0.9999998807907104],"translation":[-0.007300012744963169,0.10620005428791046,-0.020400000736117363]},{"name":"thumb_04_leaf_r","rotation":[2.2672949739899195E-08,-0.4282083213329315,1.8189894035458565E-07,0.9036800265312195],"scale":[0.9999999403953552,0.9999999403953552,1],"translation":[1.6717240214347839E-07,0.03459971770644188,8.3819031715393066E-09]},{"children":[42],"name":"thumb_03_r","rotation":[-0.0003726781578734517,-2.6511032046983019E-05,-0.00011462859401945025,0.9999999403953552],"scale":[1.0000001192092896,0.9999999403953552,0.9999998807907104],"translation":[-1.8476566765457392E-07,0.03922785073518753,-2.2351741790771484E-08]},{"children":[43],"name":"thumb_02_r","rotation":[0.000855587946716696,-3.4503656934248284E-05,0.0004891885910183191,0.9999995231628418],"scale":[1,0.9999998807907104,0.9999998807907104],"translation":[-5.3725671023130417E-08,0.03956543654203415,-2.60770320892334E-08]},{"children":[44],"name":"thumb_01_r","rotation":[0.30099350214004517,-0.9291350841522217,-0.21020175516605377,0.04388761147856712],"scale":[1,1.0000001192092896,1],"translation":[-0.02139997109770775,0.027700087055563927,0.02740001119673252]},{"children":[29,33,37,41,45],"name":"hand_r","rotation":[-0.015807554125785828,1.2515496337073273E-06,1.8592521300320186E-08,0.9998750686645508],"scale":[1,1,0.9999999403953552],"translation":[-9.1931681822643441E-08,0.24042010307312012,-5.3989879233995453E-09]},{"children":[46],"name":"lowerarm_r","rotation":[0.03093818761408329,-4.2560310248518363E-05,1.2421967312548077E-06,0.9995213150978088],"translation":[4.0259010347654112E-08,0.25111493468284607,-8.7311491370201111E-11]},{"children":[47],"name":"upperarm_r","rotation":[0.16515187919139862,-0.6876330971717834,0.16469810903072357,0.6875755786895752],"scale":[0.9999999403953552,1,1],"translation":[0.009641071781516075,0.1883048117160797,-0.03967198729515076]},{"children":[48],"name":"clavicle_r","rotation":[-0.5359424352645874,0.3172530233860016,0.3989512026309967,0.673018753528595],"translation":[-0.03139999881386757,0.1737176477909088,0.06732845306396484]},{"children":[1,25,49],"name":"spine_03","rotation":[-0.12418898940086365,0,0,0.9922585487365723],"translation":[0,0.1331336796283722,0]},{"children":[50],"name":"spine_02","rotation":[-0.03958535194396973,0,0,0.9992161989212036],"translation":[0,0.10634974390268326,-1.3969838619232178E-09]},{"children":[51],"name":"spine_01","rotation":[-0.09185619652271271,0,0,0.9957723021507263],"translation":[0,0.1280922144651413,-3.2596290111541748E-08]},{"name":"ball_leaf_l","rotation":[1.4901161193847656E-08,-4.3711391839451608E-08,6.5135044286754621E-16,1],"translation":[-1.3288267153299671E-09,0.07889983803033829,-2.1363266711205142E-10]},{"children":[53],"name":"ball_l","rotation":[-1.0066750988357853E-08,-0.9731196165084839,0.23030038177967072,4.2536413502602954E-08],"scale":[1,1.000000238418579,1],"translation":[0,0.15907371044158936,-6.51925802230835E-09]},{"children":[54],"name":"foot_l","rotation":[-0.5721680521965027,0,0,0.8201364278793335],"translation":[0,0.4587883949279785,5.5879354476928711E-09]},{"children":[55],"name":"calf_l","rotation":[0.05598893761634827,0,0,0.998431384563446],"translation":[-7.4505805969238281E-09,0.4288000166416168,3.1723175197839737E-09]},{"children":[56],"name":"thigh_l","rotation":[0.9898310303688049,0,0,0.14224845170974731],"scale":[1,1,1.0000019073486328],"translation":[0.09059999883174896,0.023176943883299828,0.0004878304898738861]},{"name":"ball_leaf_r","rotation":[1.4901161193847656E-08,-4.3711391839451608E-08,6.5135044286754621E-16,1],"translation":[-1.3288267153299671E-09,0.07889983803033829,-1.1364305052552481E-09]},{"children":[58],"name":"ball_r","rotation":[-1.0066750988357853E-08,-0.9731196165084839,0.23030038177967072,4.2536413502602954E-08],"scale":[1,1.000000238418579,1],"translation":[0,0.15907371044158936,-6.51925802230835E-09]},{"children":[59],"name":"foot_r","rotation":[-0.5721680521965027,0,0,0.8201364278793335],"translation":[0,0.4587883949279785,5.5879354476928711E-09]},{"children":[60],"name":"calf_r","rotation":[0.05598893761634827,0,0,0.998431384563446],"translation":[7.4505805969238281E-09,0.4288000166416168,3.1723175197839737E-09]},{"children":[61],"name":"thigh_r","rotation":[0.9898310303688049,0,0,0.14224845170974731],"scale":[1,1,1.0000019073486328],"translation":[-0.09059999883174896,0.023176943883299828,0.0004878304898738861]},{"children":[52,57,62],"name":"pelvis","rotation":[0.8005710244178772,0,0,0.5992379188537598],"translation":[0,0.042999982833862305,0.9491000175476074]},{"children":[63],"name":"root","rotation":[-0.7071067690849304,0,0,0.7071067690849304]},{"mesh":0,"name":"Male_Peasant_Arms","skin":0},{"mesh":1,"name":"Male_Peasant_Body","skin":0},{"mesh":2,"name":"Male_Peasant_Feet","skin":0},{"mesh":3,"name":"Male_Peasant_Legs","skin":0},{"children":[65,66,67,68,64],"name":"Armature"}],"materials":[{"doubleSided":true,"name":"MI_Peasant","normalTexture":{"index":0},"pbrMetallicRoughness":{"baseColorTexture":{"index":1},"metallicRoughnessTexture":{"index":2}}},{"doubleSided":true,"name":"MI_Regular_Male","normalTexture":{"index":3},"pbrMetallicRoughness":{"baseColorTexture":{"index":4},"metallicFactor":0,"metallicRoughnessTexture":{"index":5}}}],"meshes":[{"name":"Male_Peasant_Arms","primitives":[{"attributes":{"POSITION":0,"NORMAL":1,"TEXCOORD_0":2,"TEXCOORD_1":3,"COLOR_0":4,"COLOR_1":5,"JOINTS_0":6,"WEIGHTS_0":7},"indices":8,"material":0},{"attributes":{"POSITION":9,"NORMAL":10,"TEXCOORD_0":11,"TEXCOORD_1":12,"COLOR_0":13,"COLOR_1":14,"JOINTS_0":15,"WEIGHTS_0":16},"indices":17,"material":1}]},{"name":"Male_Peasant_Body","primitives":[{"attributes":{"POSITION":19,"NORMAL":20,"TEXCOORD_0":21,"COLOR_0":22,"COLOR_1":23,"JOINTS_0":24,"WEIGHTS_0":25},"indices":26,"material":0}]},{"name":"Male_Peasant_Feet","primitives":[{"attributes":{"POSITION":27,"NORMAL":28,"TEXCOORD_0":29,"COLOR_0":30,"COLOR_1":31,"JOINTS_0":32,"WEIGHTS_0":33},"indices":34,"material":0}]},{"name":"Male_Peasant_Legs","primitives":[{"attributes":{"POSITION":35,"NORMAL":36,"TEXCOORD_0":37,"COLOR_0":38,"COLOR_1":39,"JOINTS_0":40,"WEIGHTS_0":41},"indices":42,"material":0}]}],"textures":[{"sampler":0,"source":0},{"sampler":0,"source":1},{"sampler":0,"source":2},{"sampler":0,"source":3},{"sampler":0,"source":4},{"sampler":0,"source":5}],"images":[{"mimeType":"image/png","name":"T_Peasant_Normal","uri":"T_Peasant_Normal.png"},{"mimeType":"image/jpeg","name":"T_Peasant_BaseColor","uri":"T_Peasant_BaseColor.jpg"},{"mimeType":"image/png","name":"T_Peasant_ORM","uri":"T_Peasant_ORM.png"},{"mimeType":"image/png","name":"T_Regular_Male_Normal","uri":"T_Regular_Male_Normal.png"},{"mimeType":"image/jpeg","name":"T_Regular_Male_Dark_BaseColor","uri":"T_Regular_Male_Dark_BaseColor.jpg"},{"mimeType":"image/png","name":"T_Regular_Male_Roughness","uri":"T_Regular_Male_Roughness.png"}],"skins":[{"inverseBindMatrices":18,"joints":[64,63,52,51,50,1,0,25,24,23,22,5,4,3,2,9,8,7,6,13,12,11,10,17,16,15,14,21,20,19,18,49,48,47,46,29,28,27,26,33,32,31,30,37,36,35,34,41,40,39,38,45,44,43,42,57,56,55,54,53,62,61,60,59,58],"name":"Armature"}],"accessors":[{"bufferView":0,"componentType":5126,"count":818,"max":[0.5231516361236572,1.530490517616272,0.029068101197481155],"min":[-0.5231516361236572,1.3801196813583374,-0.13984060287475586],"type":"VEC3"},{"bufferView":1,"componentType":5126,"count":818,"type":"VEC3"},{"bufferView":2,"componentType":5126,"count":818,"type":"VEC2"},{"bufferView":3,"componentType":5126,"count":818,"type":"VEC2"},{"bufferView":4,"componentType":5121,"count":818,"normalized":true,"type":"VEC4"},{"bufferView":5,"componentType":5123,"count":818,"normalized":true,"type":"VEC4"},{"bufferView":6,"componentType":5121,"count":818,"type":"VEC4"},{"bufferView":7,"componentType":5126,"count":818,"type":"VEC4"},{"bufferView":8,"componentType":5123,"count":4224,"type":"SCALAR"},{"bufferView":9,"componentType":5126,"count":2497,"max":[0.8994146585464478,1.5050157308578491,0.015845440328121185],"min":[-0.8994145393371582,1.3667064905166626,-0.1302337497472763],"type":"VEC3"},{"bufferView":10,"componentType":5126,"count":2497,"type":"VEC3"},{"bufferView":11,"componentType":5126,"count":2497,"type":"VEC2"},{"bufferView":12,"componentType":5126,"count":2497,"type":"VEC2"},{"bufferView":13,"componentType":5121,"count":2497,"normalized":true,"type":"VEC4"},{"bufferView":14,"componentType":5123,"count":2497,"normalized":true,"type":"VEC4"},{"bufferView":15,"componentType":5121,"count":2497,"type":"VEC4"},{"bufferView":16,"componentType":5126,"count":2497,"type":"VEC4"},{"bufferView":17,"componentType":5123,"count":11790,"type":"SCALAR"},{"bufferView":18,"componentType":5126,"count":65,"type":"MAT4"},{"bufferView":19,"componentType":5126,"count":3006,"max":[0.373415470123291,1.55865478515625,0.1253526359796524],"min":[-0.373415470123291,0.9214096069335938,-0.18447723984718323],"type":"VEC3"},{"bufferView":20,"componentType":5126,"count":3006,"type":"VEC3"},{"bufferView":21,"componentType":5126,"count":3006,"type":"VEC2"},{"bufferView":22,"componentType":5121,"count":3006,"normalized":true,"type":"VEC4"},{"bufferView":23,"componentType":5123,"count":3006,"normalized":true,"type":"VEC4"},{"bufferView":24,"componentType":5121,"count":3006,"type":"VEC4"},{"bufferView":25,"componentType":5126,"count":3006,"type":"VEC4"},{"bufferView":26,"componentType":5123,"count":11568,"type":"SCALAR"},{"bufferView":27,"componentType":5126,"count":1878,"max":[0.17531567811965942,0.44826358556747437,0.16754150390625],"min":[-0.17531567811965942,-0.003967255353927612,-0.16245567798614502],"type":"VEC3"},{"bufferView":28,"componentType":5126,"count":1878,"type":"VEC3"},{"bufferView":29,"componentType":5126,"count":1878,"type":"VEC2"},{"bufferView":30,"componentType":5121,"count":1878,"normalized":true,"type":"VEC4"},{"bufferView":31,"componentType":5123,"count":1878,"normalized":true,"type":"VEC4"},{"bufferView":32,"componentType":5121,"count":1878,"type":"VEC4"},{"bufferView":33,"componentType":5126,"count":1878,"type":"VEC4"},{"bufferView":34,"componentType":5123,"count":7764,"type":"SCALAR"},{"bufferView":35,"componentType":5126,"count":656,"max":[0.2114276885986328,1.0536993741989136,0.07690303027629852],"min":[-0.2114276885986328,0.4030444920063019,-0.15175504982471466],"type":"VEC3"},{"bufferView":36,"componentType":5126,"count":656,"type":"VEC3"},{"bufferView":37,"componentType":5126,"count":656,"type":"VEC2"},{"bufferView":38,"componentType":5121,"count":656,"normalized":true,"type":"VEC4"},{"bufferView":39,"componentType":5123,"count":656,"normalized":true,"type":"VEC4"},{"bufferView":40,"componentType":5121,"count":656,"type":"VEC4"},{"bufferView":41,"componentType":5126,"count":656,"type":"VEC4"},{"bufferView":42,"componentType":5123,"count":3336,"type":"SCALAR"}],"bufferViews":[{"buffer":0,"byteLength":9816,"byteOffset":0,"target":34962},{"buffer":0,"byteLength":9816,"byteOffset":9816,"target":34962},{"buffer":0,"byteLength":6544,"byteOffset":19632,"target":34962},{"buffer":0,"byteLength":6544,"byteOffset":26176,"target":34962},{"buffer":0,"byteLength":3272,"byteOffset":32720,"target":34962},{"buffer":0,"byteLength":6544,"byteOffset":35992,"target":34962},{"buffer":0,"byteLength":3272,"byteOffset":42536,"target":34962},{"buffer":0,"byteLength":13088,"byteOffset":45808,"target":34962},{"buffer":0,"byteLength":8448,"byteOffset":58896,"target":34963},{"buffer":0,"byteLength":29964,"byteOffset":67344,"target":34962},{"buffer":0,"byteLength":29964,"byteOffset":97308,"target":34962},{"buffer":0,"byteLength":19976,"byteOffset":127272,"target":34962},{"buffer":0,"byteLength":19976,"byteOffset":147248,"target":34962},{"buffer":0,"byteLength":9988,"byteOffset":167224,"target":34962},{"buffer":0,"byteLength":19976,"byteOffset":177212,"target":34962},{"buffer":0,"byteLength":9988,"byteOffset":197188,"target":34962},{"buffer":0,"byteLength":39952,"byteOffset":207176,"target":34962},{"buffer":0,"byteLength":23580,"byteOffset":247128,"target":34963},{"buffer":0,"byteLength":4160,"byteOffset":270708},{"buffer":0,"byteLength":36072,"byteOffset":274868,"target":34962},{"buffer":0,"byteLength":36072,"byteOffset":310940,"target":34962},{"buffer":0,"byteLength":24048,"byteOffset":347012,"target":34962},{"buffer":0,"byteLength":12024,"byteOffset":371060,"target":34962},{"buffer":0,"byteLength":24048,"byteOffset":383084,"target":34962},{"buffer":0,"byteLength":12024,"byteOffset":407132,"target":34962},{"buffer":0,"byteLength":48096,"byteOffset":419156,"target":34962},{"buffer":0,"byteLength":23136,"byteOffset":467252,"target":34963},{"buffer":0,"byteLength":22536,"byteOffset":490388,"target":34962},{"buffer":0,"byteLength":22536,"byteOffset":512924,"target":34962},{"buffer":0,"byteLength":15024,"byteOffset":535460,"target":34962},{"buffer":0,"byteLength":7512,"byteOffset":550484,"target":34962},{"buffer":0,"byteLength":15024,"byteOffset":557996,"target":34962},{"buffer":0,"byteLength":7512,"byteOffset":573020,"target":34962},{"buffer":0,"byteLength":30048,"byteOffset":580532,"target":34962},{"buffer":0,"byteLength":15528,"byteOffset":610580,"target":34963},{"buffer":0,"byteLength":7872,"byteOffset":626108,"target":34962},{"buffer":0,"byteLength":7872,"byteOffset":633980,"target":34962},{"buffer":0,"byteLength":5248,"byteOffset":641852,"target":34962},{"buffer":0,"byteLength":2624,"byteOffset":647100,"target":34962},{"buffer":0,"byteLength":5248,"byteOffset":649724,"target":34962},{"buffer":0,"byteLength":2624,"byteOffset":654972,"target":34962},{"buffer":0,"byteLength":10496,"byteOffset":657596,"target":34962},{"buffer":0,"byteLength":6672,"byteOffset":668092,"target":34963}],"samplers":[{"magFilter":9729,"minFilter":9987}],"buffers":[{"byteLength":674764,"uri":"Male_Peasant.bin"}]}
